<svg xmlns="http://www.w3.org/2000/svg" xmlns:xlink="http://www.w3.org/1999/xlink" width="150" height="83.851" viewBox="0 0 150 83.851">
  <defs>
    <clipPath id="clip-path">
      <path id="Path_4" data-name="Path 4" d="M108.075-.149A41.74,41.74,0,0,1,82.915-8.534h50.319A41.74,41.74,0,0,1,108.075-.149Zm34.057-17.469a42.151,42.151,0,0,1-4.819,5.591H78.836a42.153,42.153,0,0,1-4.819-5.591ZM69.057-26.7H93.05a21.444,21.444,0,0,0,10.844,5.59H71.758A41.749,41.749,0,0,1,69.057-26.7Zm78.034,0a41.74,41.74,0,0,1-2.7,5.59H111.933a21.444,21.444,0,0,0,10.844-5.59ZM87.4-35.785a21.413,21.413,0,0,0,2.7,5.59H67.856a41.675,41.675,0,0,1-1.238-5.59Zm62.134,0a41.675,41.675,0,0,1-1.238,5.59H125.729a21.413,21.413,0,0,0,2.7-5.59ZM86.573-44.87a21.715,21.715,0,0,0-.16,2.634,21.692,21.692,0,0,0,.2,2.956H66.241q-.091-1.386-.092-2.795t.092-2.8Zm63.335,0q.091,1.386.092,2.8t-.092,2.795h-20.7a21.692,21.692,0,0,0,.2-2.956,21.708,21.708,0,0,0-.16-2.634ZM89.884-53.954a21.4,21.4,0,0,0-2.585,5.59H66.618a41.675,41.675,0,0,1,1.238-5.59Zm58.409,0a41.674,41.674,0,0,1,1.238,5.59h-21a21.4,21.4,0,0,0-2.585-5.59Zm-45.834-9.084a21.475,21.475,0,0,0-9.739,5.59H69.057a41.748,41.748,0,0,1,2.7-5.59Zm10.908,0h31.024a41.751,41.751,0,0,1,2.7,5.59H123.107A21.475,21.475,0,0,0,113.367-63.038Zm23.947-9.083a42.154,42.154,0,0,1,4.817,5.589H74.018a42.153,42.153,0,0,1,4.817-5.589ZM108.075-84a41.74,41.74,0,0,1,25.159,8.384H82.916A41.74,41.74,0,0,1,108.075-84Z" fill="none" clip-rule="evenodd"/>
    </clipPath>
    <clipPath id="clip-path-2">
      <path id="Path_3" data-name="Path 3" d="M-40,628H555V-214H-40Z" fill="none"/>
    </clipPath>
    <linearGradient id="linear-gradient" x1="0.129" x2="0.129" y2="12.19" gradientUnits="objectBoundingBox">
      <stop offset="0"/>
      <stop offset="0" stop-color="#5d9dff"/>
      <stop offset="0.1" stop-color="#5498ff"/>
      <stop offset="0.2" stop-color="#4c92ff"/>
      <stop offset="0.3" stop-color="#438cff"/>
      <stop offset="0.4" stop-color="#3b86ff"/>
      <stop offset="0.5" stop-color="#3281ff"/>
      <stop offset="0.6" stop-color="#2a7bfe"/>
      <stop offset="0.7" stop-color="#2175fe"/>
      <stop offset="0.8" stop-color="#196ffe"/>
      <stop offset="0.9" stop-color="#106afe"/>
      <stop offset="1" stop-color="#0864fe"/>
      <stop offset="1"/>
    </linearGradient>
    <linearGradient id="linear-gradient-2" x1="0.155" y1="0.499" x2="0.293" y2="0.499" gradientUnits="objectBoundingBox">
      <stop offset="0" stop-color="#5d9dff"/>
      <stop offset="0.1" stop-color="#5498ff"/>
      <stop offset="0.2" stop-color="#4c92ff"/>
      <stop offset="0.3" stop-color="#438cff"/>
      <stop offset="0.4" stop-color="#3b86ff"/>
      <stop offset="0.5" stop-color="#3281ff"/>
      <stop offset="0.6" stop-color="#2a7bfe"/>
      <stop offset="0.7" stop-color="#2175fe"/>
      <stop offset="0.8" stop-color="#196ffe"/>
      <stop offset="0.9" stop-color="#106afe"/>
      <stop offset="1" stop-color="#0864fe"/>
    </linearGradient>
    <clipPath id="clip-path-3">
      <path id="Path_8" data-name="Path 8" d="M41.925-84A41.925,41.925,0,0,1,83.851-42.075,41.925,41.925,0,0,1,41.925-.149,41.925,41.925,0,0,1,0-42.075,41.925,41.925,0,0,1,41.925-84Zm-.161,20.264a21.5,21.5,0,0,0-21.5,21.5,21.5,21.5,0,0,0,21.5,21.5,21.5,21.5,0,0,0,21.5-21.5A21.5,21.5,0,0,0,41.764-63.736Z" fill="none" clip-rule="evenodd"/>
    </clipPath>
    <linearGradient id="linear-gradient-3" x1="0" x2="0" y2="12.19" xlink:href="#linear-gradient"/>
    <linearGradient id="linear-gradient-4" x1="0.026" y1="0.499" x2="0.164" y2="0.499" xlink:href="#linear-gradient-2"/>
  </defs>
  <g id="logo" transform="translate(-973 -2751)">
    <g id="Group_23" data-name="Group 23" transform="translate(973 2835)" clip-path="url(#clip-path)">
      <g id="Group_22" data-name="Group 22" clip-path="url(#clip-path-2)">
        <g id="Group_20" data-name="Group 20" opacity="0">
          <g id="Group_19" data-name="Group 19" transform="translate(66.149 -84)">
            <path id="Path_1" data-name="Path 1" d="M-66.149,0h512V84h-512Z" fill="url(#linear-gradient)"/>
          </g>
        </g>
        <g id="Group_21" data-name="Group 21" transform="translate(66.149 -84)">
          <path id="Path_2" data-name="Path 2" d="M-66.149,0h512V84h-512Z" fill="url(#linear-gradient-2)"/>
        </g>
      </g>
    </g>
    <g id="Group_28" data-name="Group 28" transform="translate(973 2835)" clip-path="url(#clip-path-3)">
      <g id="Group_27" data-name="Group 27" clip-path="url(#clip-path-2)">
        <g id="Group_25" data-name="Group 25" opacity="0">
          <g id="Group_24" data-name="Group 24" transform="translate(0 -84)">
            <path id="Path_5" data-name="Path 5" d="M0,0H512V84H0Z" fill="url(#linear-gradient-3)"/>
          </g>
        </g>
        <g id="Group_26" data-name="Group 26" transform="translate(0 -84)">
          <path id="Path_6" data-name="Path 6" d="M0,0H512V84H0Z" fill="url(#linear-gradient-4)"/>
        </g>
      </g>
    </g>
  </g>
</svg>
